<mxfile host="app.diagrams.net" modified="2023-12-21T05:11:58.990Z" agent="Mozilla/5.0 (Windows NT 10.0; Win64; x64) AppleWebKit/537.36 (KHTML, like Gecko) Chrome/118.0.5993.771 YaBrowser/23.11.2.771 Yowser/2.5 Safari/537.36" etag="Vuy2B5DJ2SwZjshTqt7X" version="22.1.11" type="device">
  <diagram name="Страница — 1" id="1BKdy4yiSG0LwkIJJo4W">
    <mxGraphModel dx="1386" dy="767" grid="1" gridSize="10" guides="1" tooltips="1" connect="1" arrows="1" fold="1" page="1" pageScale="1" pageWidth="827" pageHeight="1169" math="0" shadow="0">
      <root>
        <mxCell id="0" />
        <mxCell id="1" parent="0" />
        <mxCell id="HAvb1_O7u5apn3CZ5rJC-1" value="Система формирования заданий на перемещение" style="rounded=0;whiteSpace=wrap;html=1;" vertex="1" parent="1">
          <mxGeometry x="320" y="210" width="120" height="60" as="geometry" />
        </mxCell>
        <mxCell id="HAvb1_O7u5apn3CZ5rJC-3" value="Наручное устройство" style="rounded=0;whiteSpace=wrap;html=1;" vertex="1" parent="1">
          <mxGeometry x="600" y="360" width="120" height="60" as="geometry" />
        </mxCell>
        <mxCell id="HAvb1_O7u5apn3CZ5rJC-4" value="Головное &lt;br&gt;устройство" style="rounded=0;whiteSpace=wrap;html=1;" vertex="1" parent="1">
          <mxGeometry x="40" y="360" width="120" height="60" as="geometry" />
        </mxCell>
        <mxCell id="HAvb1_O7u5apn3CZ5rJC-5" value="БПЛА" style="rounded=0;whiteSpace=wrap;html=1;" vertex="1" parent="1">
          <mxGeometry x="240" y="360" width="120" height="60" as="geometry" />
        </mxCell>
        <mxCell id="HAvb1_O7u5apn3CZ5rJC-6" value="WI-FI ресивер" style="rounded=0;whiteSpace=wrap;html=1;" vertex="1" parent="1">
          <mxGeometry x="400" y="360" width="120" height="60" as="geometry" />
        </mxCell>
        <mxCell id="HAvb1_O7u5apn3CZ5rJC-7" value="Оператор" style="rounded=0;whiteSpace=wrap;html=1;" vertex="1" parent="1">
          <mxGeometry x="240" y="60" width="120" height="60" as="geometry" />
        </mxCell>
        <mxCell id="HAvb1_O7u5apn3CZ5rJC-8" value="WI-FI соединение" style="rounded=0;whiteSpace=wrap;html=1;" vertex="1" parent="1">
          <mxGeometry x="400" y="60" width="120" height="60" as="geometry" />
        </mxCell>
        <mxCell id="HAvb1_O7u5apn3CZ5rJC-9" value="" style="endArrow=classic;html=1;rounded=0;exitX=0.5;exitY=1;exitDx=0;exitDy=0;entryX=0.25;entryY=0;entryDx=0;entryDy=0;" edge="1" parent="1" source="HAvb1_O7u5apn3CZ5rJC-7" target="HAvb1_O7u5apn3CZ5rJC-1">
          <mxGeometry width="50" height="50" relative="1" as="geometry">
            <mxPoint x="70" y="130" as="sourcePoint" />
            <mxPoint x="120" y="80" as="targetPoint" />
            <Array as="points">
              <mxPoint x="300" y="160" />
              <mxPoint x="350" y="160" />
            </Array>
          </mxGeometry>
        </mxCell>
        <mxCell id="HAvb1_O7u5apn3CZ5rJC-10" value="" style="endArrow=classic;html=1;rounded=0;entryX=0.75;entryY=0;entryDx=0;entryDy=0;exitX=0.5;exitY=1;exitDx=0;exitDy=0;" edge="1" parent="1" source="HAvb1_O7u5apn3CZ5rJC-8" target="HAvb1_O7u5apn3CZ5rJC-1">
          <mxGeometry width="50" height="50" relative="1" as="geometry">
            <mxPoint x="460" y="200" as="sourcePoint" />
            <mxPoint x="510" y="150" as="targetPoint" />
            <Array as="points">
              <mxPoint x="460" y="160" />
              <mxPoint x="410" y="160" />
            </Array>
          </mxGeometry>
        </mxCell>
        <mxCell id="HAvb1_O7u5apn3CZ5rJC-11" value="" style="endArrow=classic;html=1;rounded=0;entryX=0.25;entryY=1;entryDx=0;entryDy=0;exitX=0.5;exitY=0;exitDx=0;exitDy=0;" edge="1" parent="1" source="HAvb1_O7u5apn3CZ5rJC-4" target="HAvb1_O7u5apn3CZ5rJC-1">
          <mxGeometry width="50" height="50" relative="1" as="geometry">
            <mxPoint x="240" y="330" as="sourcePoint" />
            <mxPoint x="290" y="280" as="targetPoint" />
            <Array as="points">
              <mxPoint x="100" y="290" />
              <mxPoint x="350" y="290" />
            </Array>
          </mxGeometry>
        </mxCell>
        <mxCell id="HAvb1_O7u5apn3CZ5rJC-12" value="" style="endArrow=classic;html=1;rounded=0;entryX=0.425;entryY=1.002;entryDx=0;entryDy=0;entryPerimeter=0;exitX=0.5;exitY=0;exitDx=0;exitDy=0;" edge="1" parent="1" source="HAvb1_O7u5apn3CZ5rJC-5" target="HAvb1_O7u5apn3CZ5rJC-1">
          <mxGeometry width="50" height="50" relative="1" as="geometry">
            <mxPoint x="390" y="350" as="sourcePoint" />
            <mxPoint x="440" y="300" as="targetPoint" />
            <Array as="points">
              <mxPoint x="300" y="340" />
              <mxPoint x="370" y="340" />
            </Array>
          </mxGeometry>
        </mxCell>
        <mxCell id="HAvb1_O7u5apn3CZ5rJC-13" value="" style="endArrow=classic;html=1;rounded=0;entryX=0.25;entryY=1;entryDx=0;entryDy=0;exitX=0.5;exitY=0;exitDx=0;exitDy=0;" edge="1" parent="1">
          <mxGeometry width="50" height="50" relative="1" as="geometry">
            <mxPoint x="663" y="360" as="sourcePoint" />
            <mxPoint x="413" y="270" as="targetPoint" />
            <Array as="points">
              <mxPoint x="663" y="290" />
              <mxPoint x="413" y="290" />
            </Array>
          </mxGeometry>
        </mxCell>
        <mxCell id="HAvb1_O7u5apn3CZ5rJC-14" value="" style="endArrow=classic;html=1;rounded=0;entryX=0.425;entryY=1.002;entryDx=0;entryDy=0;entryPerimeter=0;exitX=0.5;exitY=0;exitDx=0;exitDy=0;" edge="1" parent="1">
          <mxGeometry width="50" height="50" relative="1" as="geometry">
            <mxPoint x="461.00000000000045" y="360" as="sourcePoint" />
            <mxPoint x="390.00000000000045" y="270" as="targetPoint" />
            <Array as="points">
              <mxPoint x="461" y="340" />
              <mxPoint x="390" y="340" />
            </Array>
          </mxGeometry>
        </mxCell>
      </root>
    </mxGraphModel>
  </diagram>
</mxfile>
